<mxfile host="app.diagrams.net" modified="2021-10-06T12:57:33.209Z" agent="5.0 (X11)" etag="1Avhup5eWiZ1KU1z8hdN" version="15.4.3" type="github" pages="3">
  <diagram id="8JJwKSZTb5gn7_4QAaBS" name="Page-1">
    <mxGraphModel dx="1902" dy="118" grid="1" gridSize="10" guides="1" tooltips="1" connect="1" arrows="1" fold="1" page="1" pageScale="1" pageWidth="1100" pageHeight="850" math="0" shadow="0">
      <root>
        <mxCell id="0" />
        <mxCell id="1" parent="0" />
        <mxCell id="M0Jl947H55iaw4nD2eUY-66" value="&lt;div align=&quot;left&quot;&gt;Working Memory&lt;br&gt;&lt;/div&gt;" style="rounded=1;whiteSpace=wrap;html=1;strokeWidth=2;fillColor=#f5f5f5;dashed=1;strokeColor=#666666;verticalAlign=top;align=left;spacingLeft=62;fontFamily=Hack;fontSource=https%3A%2F%2Ffonts.googleapis.com%2Fcss%3Ffamily%3DHack;fontSize=18;arcSize=8;gradientColor=#b3b3b3;" parent="1" vertex="1">
          <mxGeometry x="280" y="1280" width="1180" height="760" as="geometry" />
        </mxCell>
        <mxCell id="M0Jl947H55iaw4nD2eUY-105" value="&lt;font data-font-src=&quot;https://fonts.googleapis.com/css?family=Hack&quot; style=&quot;font-size: 18px&quot; face=&quot;Hack&quot;&gt;Symbolic &lt;br&gt;Long-Term Memories&lt;/font&gt;" style="rounded=1;whiteSpace=wrap;html=1;align=center;verticalAlign=top;fillColor=#f5f5f5;strokeColor=#666666;dashed=1;strokeWidth=2;gradientColor=#b3b3b3;" parent="1" vertex="1">
          <mxGeometry x="83" y="1280" width="157" height="760" as="geometry" />
        </mxCell>
        <mxCell id="M0Jl947H55iaw4nD2eUY-106" value="&lt;font data-font-src=&quot;https://fonts.googleapis.com/css?family=Hack&quot; style=&quot;font-size: 18px;&quot; face=&quot;Hack&quot;&gt;Semantic Memory&lt;/font&gt;" style="rounded=1;whiteSpace=wrap;html=1;align=center;verticalAlign=top;fillColor=#f5f5f5;strokeColor=#666666;dashed=1;strokeWidth=2;fontSize=18;fontColor=#333333;" parent="1" vertex="1">
          <mxGeometry x="100.5" y="1370" width="122" height="610" as="geometry" />
        </mxCell>
        <mxCell id="M0Jl947H55iaw4nD2eUY-64" value="&lt;font style=&quot;font-size: 18px;&quot;&gt;World Knowledge&lt;/font&gt;" style="ellipse;shape=doubleEllipse;whiteSpace=wrap;html=1;strokeColor=#36393d;strokeWidth=2;fillColor=#ffff88;fontSize=18;align=center;verticalAlign=top;labelPosition=center;verticalLabelPosition=bottom;fontFamily=Hack;fontSource=https%3A%2F%2Ffonts.googleapis.com%2Fcss%3Ffamily%3DHack;" parent="1" vertex="1">
          <mxGeometry x="126.5" y="1530" width="70" height="75" as="geometry" />
        </mxCell>
        <mxCell id="M0Jl947H55iaw4nD2eUY-65" value="&lt;font style=&quot;font-size: 18px;&quot;&gt;Affordances&lt;/font&gt;" style="ellipse;shape=doubleEllipse;whiteSpace=wrap;html=1;strokeColor=#36393d;strokeWidth=2;fillColor=#ffff88;fontSize=18;align=center;verticalAlign=top;labelPosition=center;verticalLabelPosition=bottom;fontFamily=Hack;fontSource=https%3A%2F%2Ffonts.googleapis.com%2Fcss%3Ffamily%3DHack;" parent="1" vertex="1">
          <mxGeometry x="126.5" y="1710" width="70" height="75" as="geometry" />
        </mxCell>
        <mxCell id="M0Jl947H55iaw4nD2eUY-113" style="edgeStyle=orthogonalEdgeStyle;rounded=0;orthogonalLoop=1;jettySize=auto;html=1;exitX=0.5;exitY=0;exitDx=0;exitDy=0;entryX=0;entryY=0.75;entryDx=0;entryDy=0;fontFamily=Hack;fontSource=https%3A%2F%2Ffonts.googleapis.com%2Fcss%3Ffamily%3DHack;fontSize=16;" parent="1" source="M0Jl947H55iaw4nD2eUY-109" target="M0Jl947H55iaw4nD2eUY-75" edge="1">
          <mxGeometry relative="1" as="geometry" />
        </mxCell>
        <mxCell id="M0Jl947H55iaw4nD2eUY-114" style="edgeStyle=orthogonalEdgeStyle;rounded=0;orthogonalLoop=1;jettySize=auto;html=1;exitX=0.5;exitY=1;exitDx=0;exitDy=0;entryX=0;entryY=0.25;entryDx=0;entryDy=0;fontFamily=Hack;fontSource=https%3A%2F%2Ffonts.googleapis.com%2Fcss%3Ffamily%3DHack;fontSize=16;" parent="1" source="M0Jl947H55iaw4nD2eUY-109" target="M0Jl947H55iaw4nD2eUY-102" edge="1">
          <mxGeometry relative="1" as="geometry" />
        </mxCell>
        <mxCell id="M0Jl947H55iaw4nD2eUY-109" value="&lt;font data-font-src=&quot;https://fonts.googleapis.com/css?family=Hack&quot; style=&quot;font-size: 18px&quot; face=&quot;Hack&quot;&gt;Perceptual Memory&lt;/font&gt;" style="rounded=1;whiteSpace=wrap;html=1;align=center;verticalAlign=top;fillColor=#f8cecc;strokeColor=#b85450;dashed=1;strokeWidth=3;" parent="1" vertex="1">
          <mxGeometry x="314" y="1530" width="126" height="290" as="geometry" />
        </mxCell>
        <mxCell id="M0Jl947H55iaw4nD2eUY-68" value="&lt;font style=&quot;font-size: 18px;&quot;&gt;Entities&lt;/font&gt;" style="ellipse;shape=doubleEllipse;whiteSpace=wrap;html=1;strokeColor=#36393d;strokeWidth=2;fillColor=#ffff88;fontSize=18;align=center;verticalAlign=top;labelPosition=center;verticalLabelPosition=bottom;fontFamily=Hack;fontSource=https%3A%2F%2Ffonts.googleapis.com%2Fcss%3Ffamily%3DHack;" parent="1" vertex="1">
          <mxGeometry x="342" y="1580" width="70" height="75" as="geometry" />
        </mxCell>
        <mxCell id="M0Jl947H55iaw4nD2eUY-69" value="&lt;font style=&quot;font-size: 18px;&quot;&gt;Actions&lt;/font&gt;" style="ellipse;shape=doubleEllipse;whiteSpace=wrap;html=1;strokeColor=#36393d;strokeWidth=2;fillColor=#ffff88;fontSize=18;align=center;verticalAlign=top;labelPosition=center;verticalLabelPosition=bottom;fontFamily=Hack;fontSource=https%3A%2F%2Ffonts.googleapis.com%2Fcss%3Ffamily%3DHack;" parent="1" vertex="1">
          <mxGeometry x="342" y="1695" width="70" height="75" as="geometry" />
        </mxCell>
        <mxCell id="M0Jl947H55iaw4nD2eUY-112" style="edgeStyle=orthogonalEdgeStyle;rounded=0;orthogonalLoop=1;jettySize=auto;html=1;exitX=1.033;exitY=0.097;exitDx=0;exitDy=0;entryX=0;entryY=0.25;entryDx=0;entryDy=0;fontFamily=Hack;fontSource=https%3A%2F%2Ffonts.googleapis.com%2Fcss%3Ffamily%3DHack;fontSize=16;exitPerimeter=0;" parent="1" source="M0Jl947H55iaw4nD2eUY-106" target="M0Jl947H55iaw4nD2eUY-75" edge="1">
          <mxGeometry relative="1" as="geometry" />
        </mxCell>
        <mxCell id="M0Jl947H55iaw4nD2eUY-116" style="edgeStyle=orthogonalEdgeStyle;rounded=0;orthogonalLoop=1;jettySize=auto;html=1;exitX=1;exitY=0.897;exitDx=0;exitDy=0;entryX=0;entryY=0.75;entryDx=0;entryDy=0;fontFamily=Hack;fontSource=https%3A%2F%2Ffonts.googleapis.com%2Fcss%3Ffamily%3DHack;fontSize=16;exitPerimeter=0;" parent="1" source="M0Jl947H55iaw4nD2eUY-106" target="M0Jl947H55iaw4nD2eUY-102" edge="1">
          <mxGeometry relative="1" as="geometry" />
        </mxCell>
        <mxCell id="M0Jl947H55iaw4nD2eUY-117" value="&lt;font data-font-src=&quot;https://fonts.googleapis.com/css?family=Hack&quot; style=&quot;font-size: 18px&quot; face=&quot;Hack&quot;&gt;ID Memory&lt;br&gt;&lt;/font&gt;" style="rounded=1;whiteSpace=wrap;html=1;align=center;verticalAlign=top;fillColor=#f8cecc;strokeColor=#b85450;dashed=1;strokeWidth=3;perimeterSpacing=0;" parent="1" vertex="1">
          <mxGeometry x="720" y="1370" width="540" height="130" as="geometry" />
        </mxCell>
        <mxCell id="M0Jl947H55iaw4nD2eUY-118" value="&lt;font style=&quot;font-size: 18px;&quot;&gt;Agents MOs&lt;/font&gt;" style="ellipse;shape=doubleEllipse;whiteSpace=wrap;html=1;strokeColor=#36393d;strokeWidth=2;fillColor=#ffff88;fontSize=18;align=left;verticalAlign=middle;labelPosition=right;verticalLabelPosition=middle;fontFamily=Hack;fontSource=https%3A%2F%2Ffonts.googleapis.com%2Fcss%3Ffamily%3DHack;" parent="1" vertex="1">
          <mxGeometry x="744" y="1405" width="70" height="75" as="geometry" />
        </mxCell>
        <mxCell id="M0Jl947H55iaw4nD2eUY-119" value="&lt;font style=&quot;font-size: 18px;&quot;&gt;Objects MOs&lt;/font&gt;" style="ellipse;shape=doubleEllipse;whiteSpace=wrap;html=1;strokeColor=#36393d;strokeWidth=2;fillColor=#ffff88;fontSize=18;align=left;verticalAlign=middle;labelPosition=right;verticalLabelPosition=middle;fontFamily=Hack;fontSource=https%3A%2F%2Ffonts.googleapis.com%2Fcss%3Ffamily%3DHack;" parent="1" vertex="1">
          <mxGeometry x="910" y="1405" width="70" height="75" as="geometry" />
        </mxCell>
        <mxCell id="M0Jl947H55iaw4nD2eUY-120" value="&lt;font style=&quot;font-size: 18px;&quot;&gt;Intentions MOs&lt;/font&gt;" style="ellipse;shape=doubleEllipse;whiteSpace=wrap;html=1;strokeColor=#36393d;strokeWidth=2;fillColor=#ffff88;fontSize=18;align=left;verticalAlign=middle;labelPosition=right;verticalLabelPosition=middle;fontFamily=Hack;fontSource=https%3A%2F%2Ffonts.googleapis.com%2Fcss%3Ffamily%3DHack;" parent="1" vertex="1">
          <mxGeometry x="1080" y="1405" width="70" height="75" as="geometry" />
        </mxCell>
        <mxCell id="M0Jl947H55iaw4nD2eUY-121" style="edgeStyle=orthogonalEdgeStyle;rounded=0;orthogonalLoop=1;jettySize=auto;html=1;fontFamily=Hack;fontSource=https%3A%2F%2Ffonts.googleapis.com%2Fcss%3Ffamily%3DHack;fontSize=18;exitX=1;exitY=0.5;exitDx=0;exitDy=0;" parent="1" source="M0Jl947H55iaw4nD2eUY-73" target="M0Jl947H55iaw4nD2eUY-117" edge="1">
          <mxGeometry relative="1" as="geometry" />
        </mxCell>
        <mxCell id="M0Jl947H55iaw4nD2eUY-125" value="" style="group;fontFamily=Hack;fontSource=https%3A%2F%2Ffonts.googleapis.com%2Fcss%3Ffamily%3DHack;fontSize=12;" parent="1" vertex="1" connectable="0">
          <mxGeometry x="540" y="1590" width="180" height="98.44000000000005" as="geometry" />
        </mxCell>
        <mxCell id="M0Jl947H55iaw4nD2eUY-126" value="&lt;font style=&quot;font-size: 16px&quot;&gt;Eye Direction Detector (EDD) Codelet&lt;/font&gt;" style="rounded=1;whiteSpace=wrap;html=1;strokeWidth=3;fillColor=#D5E8D4;strokeColor=#336600;" parent="M0Jl947H55iaw4nD2eUY-125" vertex="1">
          <mxGeometry x="17.112676056338028" width="145.77464788732394" height="82.5" as="geometry" />
        </mxCell>
        <mxCell id="M0Jl947H55iaw4nD2eUY-127" value="&lt;font style=&quot;font-size: 8px;&quot;&gt;O&lt;/font&gt;" style="whiteSpace=wrap;html=1;strokeWidth=2;fillColor=#D5E8D4;strokeColor=#336600;fontSize=8;" parent="M0Jl947H55iaw4nD2eUY-125" vertex="1">
          <mxGeometry x="162.88732394366193" y="13.749999999999996" width="17.112676056338028" height="20.625" as="geometry" />
        </mxCell>
        <mxCell id="M0Jl947H55iaw4nD2eUY-128" value="&lt;font style=&quot;font-size: 8px;&quot;&gt;A&lt;/font&gt;" style="whiteSpace=wrap;html=1;strokeWidth=2;fillColor=#D5E8D4;strokeColor=#336600;fontSize=8;" parent="M0Jl947H55iaw4nD2eUY-125" vertex="1">
          <mxGeometry x="162.88732394366193" y="48.12499999999999" width="17.112676056338028" height="20.625" as="geometry" />
        </mxCell>
        <mxCell id="M0Jl947H55iaw4nD2eUY-129" value="&lt;font style=&quot;font-size: 8px; line-height: 120%;&quot;&gt;LI&lt;/font&gt;" style="whiteSpace=wrap;html=1;strokeWidth=2;fillColor=#D5E8D4;strokeColor=#336600;verticalAlign=middle;spacing=0;fontSize=8;" parent="M0Jl947H55iaw4nD2eUY-125" vertex="1">
          <mxGeometry y="13.749999999999996" width="17.112676056338028" height="20.625" as="geometry" />
        </mxCell>
        <mxCell id="M0Jl947H55iaw4nD2eUY-130" value="&lt;font style=&quot;font-size: 8px;&quot;&gt;GI&lt;/font&gt;" style="whiteSpace=wrap;html=1;strokeWidth=2;fillColor=#D5E8D4;strokeColor=#336600;fontSize=8;" parent="M0Jl947H55iaw4nD2eUY-125" vertex="1">
          <mxGeometry y="48.12499999999999" width="17.112676056338028" height="20.625" as="geometry" />
        </mxCell>
        <mxCell id="M0Jl947H55iaw4nD2eUY-165" value="" style="group;fontFamily=Hack;fontSource=https%3A%2F%2Ffonts.googleapis.com%2Fcss%3Ffamily%3DHack;fontSize=12;" parent="M0Jl947H55iaw4nD2eUY-125" vertex="1" connectable="0">
          <mxGeometry x="460" width="180" height="98.44000000000005" as="geometry" />
        </mxCell>
        <mxCell id="M0Jl947H55iaw4nD2eUY-166" value="&lt;font style=&quot;font-size: 16px&quot;&gt;Shared Attention (SA) Codelet&lt;/font&gt;" style="rounded=1;whiteSpace=wrap;html=1;strokeWidth=3;fillColor=#dae8fc;strokeColor=#6c8ebf;" parent="M0Jl947H55iaw4nD2eUY-165" vertex="1">
          <mxGeometry x="17.112676056338028" width="145.77464788732394" height="82.5" as="geometry" />
        </mxCell>
        <mxCell id="M0Jl947H55iaw4nD2eUY-167" value="&lt;font style=&quot;font-size: 8px;&quot;&gt;O&lt;/font&gt;" style="whiteSpace=wrap;html=1;strokeWidth=2;fillColor=#dae8fc;strokeColor=#6c8ebf;fontSize=8;" parent="M0Jl947H55iaw4nD2eUY-165" vertex="1">
          <mxGeometry x="162.88732394366193" y="13.749999999999996" width="17.112676056338028" height="20.625" as="geometry" />
        </mxCell>
        <mxCell id="M0Jl947H55iaw4nD2eUY-168" value="&lt;font style=&quot;font-size: 8px;&quot;&gt;A&lt;/font&gt;" style="whiteSpace=wrap;html=1;strokeWidth=2;fillColor=#dae8fc;strokeColor=#6c8ebf;fontSize=8;" parent="M0Jl947H55iaw4nD2eUY-165" vertex="1">
          <mxGeometry x="162.88732394366193" y="48.12499999999999" width="17.112676056338028" height="20.625" as="geometry" />
        </mxCell>
        <mxCell id="M0Jl947H55iaw4nD2eUY-169" value="&lt;font style=&quot;font-size: 8px; line-height: 120%;&quot;&gt;LI&lt;/font&gt;" style="whiteSpace=wrap;html=1;strokeWidth=2;fillColor=#dae8fc;strokeColor=#6c8ebf;verticalAlign=middle;spacing=0;fontSize=8;" parent="M0Jl947H55iaw4nD2eUY-165" vertex="1">
          <mxGeometry y="13.749999999999996" width="17.112676056338028" height="20.625" as="geometry" />
        </mxCell>
        <mxCell id="M0Jl947H55iaw4nD2eUY-170" value="&lt;font style=&quot;font-size: 8px;&quot;&gt;GI&lt;/font&gt;" style="whiteSpace=wrap;html=1;strokeWidth=2;fillColor=#dae8fc;strokeColor=#6c8ebf;fontSize=8;" parent="M0Jl947H55iaw4nD2eUY-165" vertex="1">
          <mxGeometry y="48.12499999999999" width="17.112676056338028" height="20.625" as="geometry" />
        </mxCell>
        <mxCell id="M0Jl947H55iaw4nD2eUY-138" style="edgeStyle=orthogonalEdgeStyle;rounded=0;orthogonalLoop=1;jettySize=auto;html=1;exitX=1;exitY=0.5;exitDx=0;exitDy=0;entryX=0;entryY=0.5;entryDx=0;entryDy=0;fontFamily=Hack;fontSource=https%3A%2F%2Ffonts.googleapis.com%2Fcss%3Ffamily%3DHack;fontSize=18;" parent="1" source="M0Jl947H55iaw4nD2eUY-117" target="M0Jl947H55iaw4nD2eUY-129" edge="1">
          <mxGeometry relative="1" as="geometry">
            <Array as="points">
              <mxPoint x="1280" y="1435" />
              <mxPoint x="1280" y="1530" />
              <mxPoint x="500" y="1530" />
              <mxPoint x="500" y="1614" />
            </Array>
          </mxGeometry>
        </mxCell>
        <mxCell id="M0Jl947H55iaw4nD2eUY-139" value="" style="group;perimeterSpacing=0;strokeWidth=3;" parent="1" vertex="1" connectable="0">
          <mxGeometry x="760" y="1548.44" width="185.2500000000001" height="130" as="geometry" />
        </mxCell>
        <mxCell id="M0Jl947H55iaw4nD2eUY-123" value="&lt;font data-font-src=&quot;https://fonts.googleapis.com/css?family=Hack&quot; style=&quot;font-size: 18px&quot; face=&quot;Hack&quot;&gt;EDD Memory&lt;/font&gt;" style="rounded=1;whiteSpace=wrap;html=1;align=center;verticalAlign=top;fillColor=#D5E8D4;strokeColor=#336600;dashed=1;strokeWidth=2;" parent="M0Jl947H55iaw4nD2eUY-139" vertex="1">
          <mxGeometry width="185.25" height="130" as="geometry" />
        </mxCell>
        <mxCell id="M0Jl947H55iaw4nD2eUY-124" value="&lt;font style=&quot;font-size: 18px;&quot;&gt;Attention MOs&lt;/font&gt;" style="ellipse;shape=doubleEllipse;whiteSpace=wrap;html=1;strokeColor=#36393d;strokeWidth=2;fillColor=#ffff88;fontSize=18;align=left;verticalAlign=middle;labelPosition=right;verticalLabelPosition=middle;fontFamily=Hack;fontSource=https%3A%2F%2Ffonts.googleapis.com%2Fcss%3Ffamily%3DHack;direction=south;" parent="M0Jl947H55iaw4nD2eUY-139" vertex="1">
          <mxGeometry x="11.370000000000005" y="47.5" width="72.5" height="72.5" as="geometry" />
        </mxCell>
        <mxCell id="M0Jl947H55iaw4nD2eUY-140" style="edgeStyle=orthogonalEdgeStyle;rounded=0;orthogonalLoop=1;jettySize=auto;html=1;exitX=1;exitY=0.5;exitDx=0;exitDy=0;fontFamily=Hack;fontSource=https%3A%2F%2Ffonts.googleapis.com%2Fcss%3Ffamily%3DHack;fontSize=16;" parent="1" source="M0Jl947H55iaw4nD2eUY-127" target="M0Jl947H55iaw4nD2eUY-123" edge="1">
          <mxGeometry relative="1" as="geometry" />
        </mxCell>
        <mxCell id="M0Jl947H55iaw4nD2eUY-171" value="" style="group;strokeWidth=3;" parent="1" vertex="1" connectable="0">
          <mxGeometry x="1230" y="1550" width="185.2500000000001" height="130" as="geometry" />
        </mxCell>
        <mxCell id="M0Jl947H55iaw4nD2eUY-172" value="&lt;font data-font-src=&quot;https://fonts.googleapis.com/css?family=Hack&quot; style=&quot;font-size: 18px&quot; face=&quot;Hack&quot;&gt;SA Memory&lt;/font&gt;" style="rounded=1;whiteSpace=wrap;html=1;align=center;verticalAlign=top;fillColor=#dae8fc;strokeColor=#6c8ebf;dashed=1;strokeWidth=2;" parent="M0Jl947H55iaw4nD2eUY-171" vertex="1">
          <mxGeometry width="185.25" height="130" as="geometry" />
        </mxCell>
        <mxCell id="M0Jl947H55iaw4nD2eUY-173" value="Shared Attention MOs" style="ellipse;shape=doubleEllipse;whiteSpace=wrap;html=1;strokeColor=#36393d;strokeWidth=2;fillColor=#ffff88;fontSize=18;align=left;verticalAlign=middle;labelPosition=right;verticalLabelPosition=middle;fontFamily=Hack;fontSource=https%3A%2F%2Ffonts.googleapis.com%2Fcss%3Ffamily%3DHack;direction=south;" parent="M0Jl947H55iaw4nD2eUY-171" vertex="1">
          <mxGeometry x="11.370000000000005" y="47.5" width="72.5" height="72.5" as="geometry" />
        </mxCell>
        <mxCell id="M0Jl947H55iaw4nD2eUY-174" style="edgeStyle=orthogonalEdgeStyle;rounded=0;orthogonalLoop=1;jettySize=auto;html=1;exitX=1;exitY=0.5;exitDx=0;exitDy=0;entryX=0;entryY=0.5;entryDx=0;entryDy=0;fontFamily=Hack;fontSource=https%3A%2F%2Ffonts.googleapis.com%2Fcss%3Ffamily%3DHack;fontSize=16;" parent="1" source="M0Jl947H55iaw4nD2eUY-123" target="M0Jl947H55iaw4nD2eUY-169" edge="1">
          <mxGeometry relative="1" as="geometry" />
        </mxCell>
        <mxCell id="M0Jl947H55iaw4nD2eUY-175" style="edgeStyle=orthogonalEdgeStyle;rounded=0;orthogonalLoop=1;jettySize=auto;html=1;exitX=1;exitY=0.5;exitDx=0;exitDy=0;entryX=0;entryY=0.5;entryDx=0;entryDy=0;fontFamily=Hack;fontSource=https%3A%2F%2Ffonts.googleapis.com%2Fcss%3Ffamily%3DHack;fontSize=16;" parent="1" source="M0Jl947H55iaw4nD2eUY-167" target="M0Jl947H55iaw4nD2eUY-172" edge="1">
          <mxGeometry relative="1" as="geometry" />
        </mxCell>
        <mxCell id="M0Jl947H55iaw4nD2eUY-182" value="" style="group" parent="1" vertex="1" connectable="0">
          <mxGeometry x="1230.0000000000002" y="1847.5" width="185.2500000000001" height="130" as="geometry" />
        </mxCell>
        <mxCell id="M0Jl947H55iaw4nD2eUY-183" value="&lt;font data-font-src=&quot;https://fonts.googleapis.com/css?family=Hack&quot; style=&quot;font-size: 18px&quot; face=&quot;Hack&quot;&gt;ToM Memory&lt;/font&gt;" style="rounded=1;whiteSpace=wrap;html=1;align=center;verticalAlign=top;fillColor=#fff2cc;strokeColor=#d6b656;dashed=1;strokeWidth=3;" parent="M0Jl947H55iaw4nD2eUY-182" vertex="1">
          <mxGeometry width="185.25" height="130" as="geometry" />
        </mxCell>
        <mxCell id="M0Jl947H55iaw4nD2eUY-184" value="Beliefs" style="ellipse;shape=doubleEllipse;whiteSpace=wrap;html=1;strokeColor=#36393d;strokeWidth=2;fillColor=#ffff88;fontSize=18;align=left;verticalAlign=middle;labelPosition=right;verticalLabelPosition=middle;fontFamily=Hack;fontSource=https%3A%2F%2Ffonts.googleapis.com%2Fcss%3Ffamily%3DHack;direction=south;" parent="M0Jl947H55iaw4nD2eUY-182" vertex="1">
          <mxGeometry x="11.370000000000005" y="47.5" width="72.5" height="72.5" as="geometry" />
        </mxCell>
        <mxCell id="M0Jl947H55iaw4nD2eUY-187" style="edgeStyle=orthogonalEdgeStyle;rounded=0;orthogonalLoop=1;jettySize=auto;html=1;exitX=0.5;exitY=1;exitDx=0;exitDy=0;entryX=0.5;entryY=0;entryDx=0;entryDy=0;fontFamily=Hack;fontSource=https%3A%2F%2Ffonts.googleapis.com%2Fcss%3Ffamily%3DHack;fontSize=16;" parent="1" source="M0Jl947H55iaw4nD2eUY-172" target="M0Jl947H55iaw4nD2eUY-180" edge="1">
          <mxGeometry relative="1" as="geometry" />
        </mxCell>
        <mxCell id="M0Jl947H55iaw4nD2eUY-72" value="&lt;font style=&quot;font-size: 16px&quot;&gt;Intentionality Detector (ID) Codelet&lt;/font&gt;" style="rounded=1;whiteSpace=wrap;html=1;strokeWidth=3;fillColor=#f8cecc;strokeColor=#b85450;" parent="1" vertex="1">
          <mxGeometry x="507.11267605633805" y="1410" width="145.77464788732394" height="82.5" as="geometry" />
        </mxCell>
        <mxCell id="M0Jl947H55iaw4nD2eUY-73" value="&lt;font style=&quot;font-size: 8px;&quot;&gt;O&lt;/font&gt;" style="whiteSpace=wrap;html=1;strokeWidth=2;fillColor=#f8cecc;strokeColor=#b85450;fontSize=8;" parent="1" vertex="1">
          <mxGeometry x="652.887323943662" y="1423.75" width="17.112676056338028" height="20.625" as="geometry" />
        </mxCell>
        <mxCell id="M0Jl947H55iaw4nD2eUY-74" value="&lt;font style=&quot;font-size: 8px;&quot;&gt;A&lt;/font&gt;" style="whiteSpace=wrap;html=1;strokeWidth=2;fillColor=#f8cecc;strokeColor=#b85450;fontSize=8;" parent="1" vertex="1">
          <mxGeometry x="652.887323943662" y="1458.125" width="17.112676056338028" height="20.625" as="geometry" />
        </mxCell>
        <mxCell id="M0Jl947H55iaw4nD2eUY-75" value="&lt;font style=&quot;font-size: 8px; line-height: 120%;&quot;&gt;LI&lt;/font&gt;" style="whiteSpace=wrap;html=1;strokeWidth=2;fillColor=#f8cecc;strokeColor=#b85450;verticalAlign=middle;spacing=0;fontSize=8;" parent="1" vertex="1">
          <mxGeometry x="490" y="1423.75" width="17.112676056338028" height="20.625" as="geometry" />
        </mxCell>
        <mxCell id="M0Jl947H55iaw4nD2eUY-76" value="&lt;font style=&quot;font-size: 8px;&quot;&gt;GI&lt;/font&gt;" style="whiteSpace=wrap;html=1;strokeWidth=2;fillColor=#f8cecc;strokeColor=#b85450;fontSize=8;" parent="1" vertex="1">
          <mxGeometry x="490" y="1458.125" width="17.112676056338028" height="20.625" as="geometry" />
        </mxCell>
        <mxCell id="M0Jl947H55iaw4nD2eUY-98" value="" style="group;fontFamily=Hack;fontSource=https%3A%2F%2Ffonts.googleapis.com%2Fcss%3Ffamily%3DHack;fontSize=12;align=left;" parent="1" vertex="1" connectable="0">
          <mxGeometry x="550" y="1888.44" width="180" height="98.44000000000005" as="geometry" />
        </mxCell>
        <mxCell id="M0Jl947H55iaw4nD2eUY-99" value="&lt;font style=&quot;font-size: 16px&quot;&gt;Affordances Perception Codelet&lt;/font&gt;" style="rounded=1;whiteSpace=wrap;html=1;strokeWidth=3;fillColor=#ffcc99;strokeColor=#36393d;" parent="M0Jl947H55iaw4nD2eUY-98" vertex="1">
          <mxGeometry x="17.11267605633803" width="145.77464788732397" height="80" as="geometry" />
        </mxCell>
        <mxCell id="M0Jl947H55iaw4nD2eUY-100" value="&lt;font style=&quot;font-size: 8px;&quot;&gt;O&lt;/font&gt;" style="whiteSpace=wrap;html=1;strokeWidth=2;fillColor=#ffcccc;strokeColor=#36393d;fontSize=8;" parent="M0Jl947H55iaw4nD2eUY-98" vertex="1">
          <mxGeometry x="162.88732394366195" y="13.33333333333333" width="17.11267605633803" height="20" as="geometry" />
        </mxCell>
        <mxCell id="M0Jl947H55iaw4nD2eUY-101" value="&lt;font style=&quot;font-size: 8px;&quot;&gt;A&lt;/font&gt;" style="whiteSpace=wrap;html=1;strokeWidth=2;fillColor=#ffcccc;strokeColor=#36393d;fontSize=8;" parent="M0Jl947H55iaw4nD2eUY-98" vertex="1">
          <mxGeometry x="162.88732394366195" y="46.66666666666666" width="17.11267605633803" height="20" as="geometry" />
        </mxCell>
        <mxCell id="M0Jl947H55iaw4nD2eUY-102" value="&lt;font style=&quot;font-size: 8px; line-height: 120%;&quot;&gt;LI&lt;/font&gt;" style="whiteSpace=wrap;html=1;strokeWidth=2;fillColor=#ffcccc;strokeColor=#36393d;verticalAlign=middle;spacing=0;fontSize=8;" parent="M0Jl947H55iaw4nD2eUY-98" vertex="1">
          <mxGeometry y="13.33333333333333" width="17.11267605633803" height="20" as="geometry" />
        </mxCell>
        <mxCell id="M0Jl947H55iaw4nD2eUY-103" value="&lt;font style=&quot;font-size: 8px;&quot;&gt;GI&lt;/font&gt;" style="whiteSpace=wrap;html=1;strokeWidth=2;fillColor=#ffcccc;strokeColor=#36393d;fontSize=8;" parent="M0Jl947H55iaw4nD2eUY-98" vertex="1">
          <mxGeometry y="46.66666666666666" width="17.11267605633803" height="20" as="geometry" />
        </mxCell>
        <mxCell id="M0Jl947H55iaw4nD2eUY-176" value="" style="group;fontFamily=Hack;fontSource=https%3A%2F%2Ffonts.googleapis.com%2Fcss%3Ffamily%3DHack;fontSize=12;" parent="M0Jl947H55iaw4nD2eUY-98" vertex="1" connectable="0">
          <mxGeometry x="450" width="180" height="98.44000000000005" as="geometry" />
        </mxCell>
        <mxCell id="M0Jl947H55iaw4nD2eUY-177" value="&lt;font style=&quot;font-size: 16px&quot;&gt;Theory of Mind (ToM) Codelet&lt;br&gt;&lt;/font&gt;" style="rounded=1;whiteSpace=wrap;html=1;strokeWidth=3;fillColor=#fff2cc;strokeColor=#d6b656;" parent="M0Jl947H55iaw4nD2eUY-176" vertex="1">
          <mxGeometry x="17.112676056338028" width="145.77464788732394" height="82.5" as="geometry" />
        </mxCell>
        <mxCell id="M0Jl947H55iaw4nD2eUY-178" value="&lt;font style=&quot;font-size: 8px;&quot;&gt;O&lt;/font&gt;" style="whiteSpace=wrap;html=1;strokeWidth=2;fillColor=#fff2cc;strokeColor=#d6b656;fontSize=8;" parent="M0Jl947H55iaw4nD2eUY-176" vertex="1">
          <mxGeometry x="162.88732394366193" y="13.749999999999996" width="17.112676056338028" height="20.625" as="geometry" />
        </mxCell>
        <mxCell id="M0Jl947H55iaw4nD2eUY-179" value="&lt;font style=&quot;font-size: 8px;&quot;&gt;A&lt;/font&gt;" style="whiteSpace=wrap;html=1;strokeWidth=2;fillColor=#fff2cc;strokeColor=#d6b656;fontSize=8;" parent="M0Jl947H55iaw4nD2eUY-176" vertex="1">
          <mxGeometry x="162.88732394366193" y="48.12499999999999" width="17.112676056338028" height="20.625" as="geometry" />
        </mxCell>
        <mxCell id="M0Jl947H55iaw4nD2eUY-180" value="&lt;font style=&quot;font-size: 8px; line-height: 120%;&quot;&gt;LI&lt;/font&gt;" style="whiteSpace=wrap;html=1;strokeWidth=2;fillColor=#fff2cc;strokeColor=#d6b656;verticalAlign=middle;spacing=0;fontSize=8;" parent="M0Jl947H55iaw4nD2eUY-176" vertex="1">
          <mxGeometry y="13.749999999999996" width="17.112676056338028" height="20.625" as="geometry" />
        </mxCell>
        <mxCell id="M0Jl947H55iaw4nD2eUY-181" value="&lt;font style=&quot;font-size: 8px;&quot;&gt;GI&lt;/font&gt;" style="whiteSpace=wrap;html=1;strokeWidth=2;fillColor=#fff2cc;strokeColor=#d6b656;fontSize=8;" parent="M0Jl947H55iaw4nD2eUY-176" vertex="1">
          <mxGeometry y="48.12499999999999" width="17.112676056338028" height="20.625" as="geometry" />
        </mxCell>
        <mxCell id="M0Jl947H55iaw4nD2eUY-189" style="edgeStyle=orthogonalEdgeStyle;rounded=0;orthogonalLoop=1;jettySize=auto;html=1;exitX=1;exitY=0.5;exitDx=0;exitDy=0;entryX=0;entryY=0.5;entryDx=0;entryDy=0;fontFamily=Hack;fontSource=https%3A%2F%2Ffonts.googleapis.com%2Fcss%3Ffamily%3DHack;fontSize=16;" parent="M0Jl947H55iaw4nD2eUY-98" source="M0Jl947H55iaw4nD2eUY-100" target="M0Jl947H55iaw4nD2eUY-180" edge="1">
          <mxGeometry relative="1" as="geometry" />
        </mxCell>
        <mxCell id="M0Jl947H55iaw4nD2eUY-191" style="edgeStyle=orthogonalEdgeStyle;rounded=0;orthogonalLoop=1;jettySize=auto;html=1;fontFamily=Hack;fontSource=https%3A%2F%2Ffonts.googleapis.com%2Fcss%3Ffamily%3DHack;fontSize=16;entryX=0;entryY=0;entryDx=0;entryDy=0;" parent="1" source="M0Jl947H55iaw4nD2eUY-123" target="M0Jl947H55iaw4nD2eUY-180" edge="1">
          <mxGeometry relative="1" as="geometry">
            <Array as="points">
              <mxPoint x="853" y="1902" />
            </Array>
          </mxGeometry>
        </mxCell>
        <mxCell id="M0Jl947H55iaw4nD2eUY-193" style="edgeStyle=orthogonalEdgeStyle;rounded=0;orthogonalLoop=1;jettySize=auto;html=1;exitX=1;exitY=0.5;exitDx=0;exitDy=0;entryX=0;entryY=0.5;entryDx=0;entryDy=0;fontFamily=Hack;fontSource=https%3A%2F%2Ffonts.googleapis.com%2Fcss%3Ffamily%3DHack;fontSize=16;" parent="1" source="M0Jl947H55iaw4nD2eUY-178" target="M0Jl947H55iaw4nD2eUY-183" edge="1">
          <mxGeometry relative="1" as="geometry" />
        </mxCell>
        <mxCell id="M0Jl947H55iaw4nD2eUY-199" value="&lt;b&gt;ID&lt;/b&gt;" style="rounded=0;whiteSpace=wrap;html=1;fontFamily=Hack;fontSource=https%3A%2F%2Ffonts.googleapis.com%2Fcss%3Ffamily%3DHack;fontSize=16;strokeColor=#b85450;strokeWidth=3;fillColor=#f8cecc;align=left;verticalAlign=middle;labelPosition=right;verticalLabelPosition=middle;" parent="1" vertex="1">
          <mxGeometry x="1038" y="1230" width="40" height="40" as="geometry" />
        </mxCell>
        <mxCell id="M0Jl947H55iaw4nD2eUY-200" value="&lt;b&gt;EDD&lt;/b&gt;" style="rounded=0;whiteSpace=wrap;html=1;fontFamily=Hack;fontSource=https%3A%2F%2Ffonts.googleapis.com%2Fcss%3Ffamily%3DHack;fontSize=16;strokeColor=#82b366;strokeWidth=3;fillColor=#d5e8d4;align=left;verticalAlign=middle;labelPosition=right;verticalLabelPosition=middle;" parent="1" vertex="1">
          <mxGeometry x="1139" y="1230" width="40" height="40" as="geometry" />
        </mxCell>
        <mxCell id="M0Jl947H55iaw4nD2eUY-201" value="&lt;b&gt;SAM&lt;/b&gt;" style="rounded=0;whiteSpace=wrap;html=1;fontFamily=Hack;fontSource=https%3A%2F%2Ffonts.googleapis.com%2Fcss%3Ffamily%3DHack;fontSize=16;strokeColor=#6c8ebf;strokeWidth=3;fillColor=#dae8fc;align=left;verticalAlign=middle;labelPosition=right;verticalLabelPosition=middle;" parent="1" vertex="1">
          <mxGeometry x="1239" y="1230" width="40" height="40" as="geometry" />
        </mxCell>
        <mxCell id="M0Jl947H55iaw4nD2eUY-202" value="&lt;b&gt;ToMM&lt;/b&gt;" style="rounded=0;whiteSpace=wrap;html=1;fontFamily=Hack;fontSource=https%3A%2F%2Ffonts.googleapis.com%2Fcss%3Ffamily%3DHack;fontSize=16;strokeColor=#d6b656;strokeWidth=3;fillColor=#fff2cc;align=left;verticalAlign=middle;labelPosition=right;verticalLabelPosition=middle;" parent="1" vertex="1">
          <mxGeometry x="1339" y="1230" width="40" height="40" as="geometry" />
        </mxCell>
        <mxCell id="M0Jl947H55iaw4nD2eUY-203" value="&lt;font style=&quot;font-size: 18px&quot;&gt;Baron-Cohen&#39;s Model Correspondence:&lt;/font&gt;" style="text;html=1;strokeColor=none;fillColor=none;align=center;verticalAlign=middle;whiteSpace=wrap;rounded=0;fontFamily=Hack;fontSource=https%3A%2F%2Ffonts.googleapis.com%2Fcss%3Ffamily%3DHack;fontSize=16;" parent="1" vertex="1">
          <mxGeometry x="779" y="1230" width="240" height="40" as="geometry" />
        </mxCell>
      </root>
    </mxGraphModel>
  </diagram>
  <diagram name="Architecture vs Model" id="DBz07JiTzr5T5yzeQRyb">
    <mxGraphModel dx="1026" dy="600" grid="0" gridSize="10" guides="0" tooltips="1" connect="1" arrows="0" fold="1" page="1" pageScale="1" pageWidth="1169" pageHeight="1654" math="0" shadow="0">
      <root>
        <mxCell id="-L4_JqOgApTh1CSubSjm-0" />
        <mxCell id="-L4_JqOgApTh1CSubSjm-1" parent="-L4_JqOgApTh1CSubSjm-0" />
        <mxCell id="SfTASaGkQ4K_IoWYSuAb-0" value="" style="rounded=1;shape=corner;whiteSpace=wrap;html=1;rotation=-180;fillColor=#dae8fc;dx=215;dy=278;strokeWidth=7;perimeterSpacing=0;strokeColor=#6c8ebf;rounded=1;align=left;" parent="-L4_JqOgApTh1CSubSjm-1" vertex="1">
          <mxGeometry x="572" y="260" width="370" height="521" as="geometry" />
        </mxCell>
        <mxCell id="fvT8n4NFvmnWahcFt_-2-0" value="" style="rounded=1;whiteSpace=wrap;html=1;align=left;strokeColor=#d6b656;strokeWidth=7;fillColor=#fff2cc;arcSize=5;" parent="-L4_JqOgApTh1CSubSjm-1" vertex="1">
          <mxGeometry x="953" y="512" width="464" height="267" as="geometry" />
        </mxCell>
        <mxCell id="-UdFNhRuhUac9PFe4MwG-0" value="" style="rounded=1;whiteSpace=wrap;html=1;align=left;strokeWidth=7;strokeColor=#82b366;fillColor=#d5e8d4;arcSize=7;" parent="-L4_JqOgApTh1CSubSjm-1" vertex="1">
          <mxGeometry x="30" y="503" width="529" height="281" as="geometry" />
        </mxCell>
        <mxCell id="S8luQe9RhvC_368ReRVJ-0" value="" style="rounded=1;whiteSpace=wrap;html=1;align=left;strokeWidth=7;strokeColor=#b85450;fillColor=#f8cecc;glass=0;arcSize=5;" parent="-L4_JqOgApTh1CSubSjm-1" vertex="1">
          <mxGeometry x="26" y="21" width="691" height="473" as="geometry" />
        </mxCell>
        <mxCell id="-L4_JqOgApTh1CSubSjm-6" value="" style="group;fontFamily=Hack;fontSource=https%3A%2F%2Ffonts.googleapis.com%2Fcss%3Ffamily%3DHack;fontSize=12;" parent="-L4_JqOgApTh1CSubSjm-1" vertex="1" connectable="0">
          <mxGeometry x="347" y="130" width="160" height="72.5" as="geometry" />
        </mxCell>
        <mxCell id="-L4_JqOgApTh1CSubSjm-7" value="&lt;font style=&quot;font-size: 16px&quot;&gt;Intentionality Detector Codelet&lt;/font&gt;" style="rounded=1;whiteSpace=wrap;html=1;strokeWidth=3;fillColor=#ffcc99;strokeColor=#36393d;" parent="-L4_JqOgApTh1CSubSjm-6" vertex="1">
          <mxGeometry x="15.211267605633802" width="129.57746478873239" height="72.5" as="geometry" />
        </mxCell>
        <mxCell id="-L4_JqOgApTh1CSubSjm-8" value="&lt;font style=&quot;font-size: 8px;&quot;&gt;O&lt;/font&gt;" style="whiteSpace=wrap;html=1;strokeWidth=2;fillColor=#ffcccc;strokeColor=#36393d;fontSize=8;" parent="-L4_JqOgApTh1CSubSjm-6" vertex="1">
          <mxGeometry x="144.78873239436615" y="12.08333333333333" width="15.211267605633802" height="18.125" as="geometry" />
        </mxCell>
        <mxCell id="-L4_JqOgApTh1CSubSjm-9" value="&lt;font style=&quot;font-size: 8px;&quot;&gt;A&lt;/font&gt;" style="whiteSpace=wrap;html=1;strokeWidth=2;fillColor=#ffcccc;strokeColor=#36393d;fontSize=8;" parent="-L4_JqOgApTh1CSubSjm-6" vertex="1">
          <mxGeometry x="144.78873239436615" y="42.29166666666666" width="15.211267605633802" height="18.125" as="geometry" />
        </mxCell>
        <mxCell id="-L4_JqOgApTh1CSubSjm-10" value="&lt;font style=&quot;font-size: 8px; line-height: 120%;&quot;&gt;LI&lt;/font&gt;" style="whiteSpace=wrap;html=1;strokeWidth=2;fillColor=#ffcccc;strokeColor=#36393d;verticalAlign=middle;spacing=0;fontSize=8;" parent="-L4_JqOgApTh1CSubSjm-6" vertex="1">
          <mxGeometry y="12.08333333333333" width="15.211267605633802" height="18.125" as="geometry" />
        </mxCell>
        <mxCell id="-L4_JqOgApTh1CSubSjm-11" value="&lt;font style=&quot;font-size: 8px;&quot;&gt;GI&lt;/font&gt;" style="whiteSpace=wrap;html=1;strokeWidth=2;fillColor=#ffcccc;strokeColor=#36393d;fontSize=8;" parent="-L4_JqOgApTh1CSubSjm-6" vertex="1">
          <mxGeometry y="42.29166666666666" width="15.211267605633802" height="18.125" as="geometry" />
        </mxCell>
        <mxCell id="-L4_JqOgApTh1CSubSjm-12" value="&lt;font style=&quot;font-size: 18px&quot;&gt;ID Memory&lt;/font&gt;" style="rounded=1;whiteSpace=wrap;html=1;strokeWidth=2;dashed=1;strokeColor=#3465A4;verticalAlign=top;align=center;spacingLeft=62;fontFamily=Hack;fontSource=https%3A%2F%2Ffonts.googleapis.com%2Fcss%3Ffamily%3DHack;fontSize=16;fillColor=#9AC7BF;" parent="-L4_JqOgApTh1CSubSjm-1" vertex="1">
          <mxGeometry x="58" y="351" width="628" height="134" as="geometry" />
        </mxCell>
        <mxCell id="-L4_JqOgApTh1CSubSjm-13" value="&lt;font style=&quot;font-size: 18px&quot;&gt;EDD Memory&lt;/font&gt;" style="rounded=1;whiteSpace=wrap;html=1;strokeWidth=2;dashed=1;strokeColor=#3465A4;verticalAlign=top;align=center;spacingLeft=62;fontFamily=Hack;fontSource=https%3A%2F%2Ffonts.googleapis.com%2Fcss%3Ffamily%3DHack;fontSize=10;fillColor=#9AC7BF;" parent="-L4_JqOgApTh1CSubSjm-1" vertex="1">
          <mxGeometry x="347" y="506" width="147" height="234" as="geometry" />
        </mxCell>
        <mxCell id="-L4_JqOgApTh1CSubSjm-14" value="" style="group;fontFamily=Hack;fontSource=https%3A%2F%2Ffonts.googleapis.com%2Fcss%3Ffamily%3DHack;fontSize=10;align=center;rotation=90;" parent="-L4_JqOgApTh1CSubSjm-1" vertex="1" connectable="0">
          <mxGeometry x="163" y="540" width="160" height="72.5" as="geometry" />
        </mxCell>
        <mxCell id="-L4_JqOgApTh1CSubSjm-15" value="&lt;font style=&quot;font-size: 16px&quot;&gt;Eye Direction Detector Codelet&lt;/font&gt;" style="rounded=1;whiteSpace=wrap;html=1;strokeWidth=3;fillColor=#ffcc99;strokeColor=#36393d;" parent="-L4_JqOgApTh1CSubSjm-14" vertex="1">
          <mxGeometry x="-37.78873239436619" y="7" width="129.5774647887324" height="72.5" as="geometry" />
        </mxCell>
        <mxCell id="-L4_JqOgApTh1CSubSjm-16" value="&lt;font style=&quot;font-size: 8px;&quot;&gt;O&lt;/font&gt;" style="whiteSpace=wrap;html=1;strokeWidth=2;fillColor=#ffcccc;strokeColor=#36393d;fontSize=8;" parent="-L4_JqOgApTh1CSubSjm-14" vertex="1">
          <mxGeometry x="91.7887323943662" y="19.08333333333333" width="15.211267605633806" height="18.125" as="geometry" />
        </mxCell>
        <mxCell id="-L4_JqOgApTh1CSubSjm-17" value="&lt;font style=&quot;font-size: 8px;&quot;&gt;A&lt;/font&gt;" style="whiteSpace=wrap;html=1;strokeWidth=2;fillColor=#ffcccc;strokeColor=#36393d;fontSize=8;" parent="-L4_JqOgApTh1CSubSjm-14" vertex="1">
          <mxGeometry x="91.7887323943662" y="49.29166666666666" width="15.211267605633806" height="18.125" as="geometry" />
        </mxCell>
        <mxCell id="-L4_JqOgApTh1CSubSjm-18" value="&lt;font style=&quot;font-size: 8px; line-height: 120%;&quot;&gt;LI&lt;/font&gt;" style="whiteSpace=wrap;html=1;strokeWidth=2;fillColor=#ffcccc;strokeColor=#36393d;verticalAlign=middle;spacing=0;fontSize=8;" parent="-L4_JqOgApTh1CSubSjm-14" vertex="1">
          <mxGeometry x="-53" y="19.08333333333333" width="15.211267605633806" height="18.125" as="geometry" />
        </mxCell>
        <mxCell id="-L4_JqOgApTh1CSubSjm-19" value="&lt;font style=&quot;font-size: 8px;&quot;&gt;GI&lt;/font&gt;" style="whiteSpace=wrap;html=1;strokeWidth=2;fillColor=#ffcccc;strokeColor=#36393d;fontSize=8;" parent="-L4_JqOgApTh1CSubSjm-14" vertex="1">
          <mxGeometry x="-53" y="49.29166666666666" width="15.211267605633806" height="18.125" as="geometry" />
        </mxCell>
        <mxCell id="-L4_JqOgApTh1CSubSjm-20" value="" style="group;fontFamily=Hack;fontSource=https%3A%2F%2Ffonts.googleapis.com%2Fcss%3Ffamily%3DHack;fontSize=12;align=left;direction=west;rotation=180;" parent="-L4_JqOgApTh1CSubSjm-1" vertex="1" connectable="0">
          <mxGeometry x="962" y="645" width="190" height="60" as="geometry" />
        </mxCell>
        <mxCell id="-L4_JqOgApTh1CSubSjm-21" value="&lt;font style=&quot;font-size: 16px&quot;&gt;Theory of Mind Codelet&lt;/font&gt;" style="rounded=1;whiteSpace=wrap;html=1;strokeWidth=3;fillColor=#ffcc99;strokeColor=#36393d;" parent="-L4_JqOgApTh1CSubSjm-20" vertex="1">
          <mxGeometry x="18.063380281690144" width="153.87323943661974" height="60" as="geometry" />
        </mxCell>
        <mxCell id="-L4_JqOgApTh1CSubSjm-22" value="&lt;font style=&quot;font-size: 8px;&quot;&gt;O&lt;/font&gt;" style="whiteSpace=wrap;html=1;strokeWidth=2;fillColor=#ffcccc;strokeColor=#36393d;fontSize=8;" parent="-L4_JqOgApTh1CSubSjm-20" vertex="1">
          <mxGeometry x="171.93661971830986" y="9.999999999999998" width="18.063380281690144" height="15" as="geometry" />
        </mxCell>
        <mxCell id="-L4_JqOgApTh1CSubSjm-23" value="&lt;font style=&quot;font-size: 8px;&quot;&gt;A&lt;/font&gt;" style="whiteSpace=wrap;html=1;strokeWidth=2;fillColor=#ffcccc;strokeColor=#36393d;fontSize=8;" parent="-L4_JqOgApTh1CSubSjm-20" vertex="1">
          <mxGeometry x="171.93661971830986" y="34.99999999999999" width="18.063380281690144" height="15" as="geometry" />
        </mxCell>
        <mxCell id="-L4_JqOgApTh1CSubSjm-24" value="&lt;font style=&quot;font-size: 8px; line-height: 120%;&quot;&gt;LI&lt;/font&gt;" style="whiteSpace=wrap;html=1;strokeWidth=2;fillColor=#ffcccc;strokeColor=#36393d;verticalAlign=middle;spacing=0;fontSize=8;" parent="-L4_JqOgApTh1CSubSjm-20" vertex="1">
          <mxGeometry y="9.999999999999998" width="18.063380281690144" height="15" as="geometry" />
        </mxCell>
        <mxCell id="-L4_JqOgApTh1CSubSjm-25" value="&lt;font style=&quot;font-size: 8px;&quot;&gt;GI&lt;/font&gt;" style="whiteSpace=wrap;html=1;strokeWidth=2;fillColor=#ffcccc;strokeColor=#36393d;fontSize=8;" parent="-L4_JqOgApTh1CSubSjm-20" vertex="1">
          <mxGeometry y="34.99999999999999" width="18.063380281690144" height="15" as="geometry" />
        </mxCell>
        <mxCell id="-L4_JqOgApTh1CSubSjm-26" value="&lt;font style=&quot;font-size: 18px;&quot;&gt;Attention MOs&lt;/font&gt;" style="ellipse;shape=doubleEllipse;whiteSpace=wrap;html=1;strokeColor=#36393d;strokeWidth=2;fillColor=#ffff88;fontSize=18;align=center;verticalAlign=top;labelPosition=center;verticalLabelPosition=bottom;fontFamily=Hack;fontSource=https%3A%2F%2Ffonts.googleapis.com%2Fcss%3Ffamily%3DHack;" parent="-L4_JqOgApTh1CSubSjm-1" vertex="1">
          <mxGeometry x="394" y="570" width="70" height="75" as="geometry" />
        </mxCell>
        <mxCell id="-L4_JqOgApTh1CSubSjm-35" value="&lt;font style=&quot;font-size: 18px;&quot;&gt;Intentions MOs&lt;/font&gt;" style="ellipse;shape=doubleEllipse;whiteSpace=wrap;html=1;strokeColor=#36393d;strokeWidth=2;fillColor=#ffff88;fontSize=18;align=left;verticalAlign=middle;labelPosition=right;verticalLabelPosition=middle;fontFamily=Hack;fontSource=https%3A%2F%2Ffonts.googleapis.com%2Fcss%3Ffamily%3DHack;" parent="-L4_JqOgApTh1CSubSjm-1" vertex="1">
          <mxGeometry x="486" y="386" width="70" height="75" as="geometry" />
        </mxCell>
        <mxCell id="-L4_JqOgApTh1CSubSjm-36" value="&lt;font style=&quot;font-size: 18px&quot;&gt;ToM Memory&lt;/font&gt;" style="rounded=1;whiteSpace=wrap;html=1;strokeWidth=2;dashed=1;strokeColor=#3465A4;verticalAlign=top;align=center;spacingLeft=62;fontFamily=Hack;fontSource=https%3A%2F%2Ffonts.googleapis.com%2Fcss%3Ffamily%3DHack;fontSize=10;fillColor=#9AC7BF;" parent="-L4_JqOgApTh1CSubSjm-1" vertex="1">
          <mxGeometry x="1207" y="569" width="165" height="179" as="geometry" />
        </mxCell>
        <mxCell id="-L4_JqOgApTh1CSubSjm-37" value="&lt;font style=&quot;font-size: 18px;&quot; data-font-src=&quot;https://fonts.googleapis.com/css?family=Hack&quot;&gt;Beliefs&lt;/font&gt;" style="ellipse;shape=doubleEllipse;whiteSpace=wrap;html=1;strokeColor=#36393d;strokeWidth=2;fillColor=#ffff88;fontSize=18;align=center;verticalAlign=top;labelPosition=center;verticalLabelPosition=bottom;fontFamily=Hack;fontSource=https%3A%2F%2Ffonts.googleapis.com%2Fcss%3Ffamily%3DHack;" parent="-L4_JqOgApTh1CSubSjm-1" vertex="1">
          <mxGeometry x="1242" y="624" width="70" height="77" as="geometry" />
        </mxCell>
        <mxCell id="-L4_JqOgApTh1CSubSjm-38" value="&lt;font style=&quot;font-size: 16px&quot;&gt;Perceptual Memory&lt;/font&gt;" style="rounded=1;whiteSpace=wrap;html=1;strokeWidth=2;dashed=1;strokeColor=#3465A4;verticalAlign=top;align=left;spacingLeft=62;fontFamily=Hack;fontSource=https%3A%2F%2Ffonts.googleapis.com%2Fcss%3Ffamily%3DHack;fillColor=#9AC7BF;" parent="-L4_JqOgApTh1CSubSjm-1" vertex="1">
          <mxGeometry x="99" y="44" width="169" height="300" as="geometry" />
        </mxCell>
        <mxCell id="-L4_JqOgApTh1CSubSjm-40" value="&lt;font style=&quot;font-size: 18px;&quot;&gt;Actions&lt;/font&gt;" style="ellipse;shape=doubleEllipse;whiteSpace=wrap;html=1;strokeColor=#36393d;strokeWidth=2;fillColor=#ffff88;fontSize=18;align=center;verticalAlign=top;labelPosition=center;verticalLabelPosition=bottom;fontFamily=Hack;fontSource=https%3A%2F%2Ffonts.googleapis.com%2Fcss%3Ffamily%3DHack;" parent="-L4_JqOgApTh1CSubSjm-1" vertex="1">
          <mxGeometry x="149" y="224" width="70" height="75" as="geometry" />
        </mxCell>
        <mxCell id="-L4_JqOgApTh1CSubSjm-41" value="&lt;font style=&quot;font-size: 18px;&quot;&gt;Entities&lt;/font&gt;" style="ellipse;shape=doubleEllipse;whiteSpace=wrap;html=1;strokeColor=#36393d;strokeWidth=2;fillColor=#ffff88;fontSize=18;align=center;verticalAlign=top;labelPosition=center;verticalLabelPosition=bottom;fontFamily=Hack;fontSource=https%3A%2F%2Ffonts.googleapis.com%2Fcss%3Ffamily%3DHack;" parent="-L4_JqOgApTh1CSubSjm-1" vertex="1">
          <mxGeometry x="149" y="104" width="70" height="75" as="geometry" />
        </mxCell>
        <mxCell id="-L4_JqOgApTh1CSubSjm-42" value="&lt;font style=&quot;font-size: 18px;&quot;&gt;Agents MOs&lt;/font&gt;" style="ellipse;shape=doubleEllipse;whiteSpace=wrap;html=1;strokeColor=#36393d;strokeWidth=2;fillColor=#ffff88;fontSize=18;align=left;verticalAlign=middle;labelPosition=right;verticalLabelPosition=middle;fontFamily=Hack;fontSource=https%3A%2F%2Ffonts.googleapis.com%2Fcss%3Ffamily%3DHack;" parent="-L4_JqOgApTh1CSubSjm-1" vertex="1">
          <mxGeometry x="118" y="385" width="70" height="75" as="geometry" />
        </mxCell>
        <mxCell id="-L4_JqOgApTh1CSubSjm-43" value="&lt;font style=&quot;font-size: 18px;&quot;&gt;Objects MOs&lt;/font&gt;" style="ellipse;shape=doubleEllipse;whiteSpace=wrap;html=1;strokeColor=#36393d;strokeWidth=2;fillColor=#ffff88;fontSize=18;align=left;verticalAlign=middle;labelPosition=right;verticalLabelPosition=middle;fontFamily=Hack;fontSource=https%3A%2F%2Ffonts.googleapis.com%2Fcss%3Ffamily%3DHack;" parent="-L4_JqOgApTh1CSubSjm-1" vertex="1">
          <mxGeometry x="307" y="384" width="70" height="75" as="geometry" />
        </mxCell>
        <mxCell id="S1rnQU5Jr-xG2g7S_xI7-0" value="" style="rounded=1;whiteSpace=wrap;html=1;align=left;strokeWidth=7;strokeColor=#b85450;fillColor=#f8cecc;glass=0;" parent="-L4_JqOgApTh1CSubSjm-1" vertex="1">
          <mxGeometry x="1287" y="34" width="32" height="32" as="geometry" />
        </mxCell>
        <mxCell id="S1rnQU5Jr-xG2g7S_xI7-1" value="ID" style="text;html=1;strokeColor=none;fillColor=none;align=center;verticalAlign=middle;whiteSpace=wrap;rounded=0;glass=0;fontFamily=Hack;fontSource=https%3A%2F%2Ffonts.googleapis.com%2Fcss%3Ffamily%3DHack;fontSize=23;fontStyle=1" parent="-L4_JqOgApTh1CSubSjm-1" vertex="1">
          <mxGeometry x="1327" y="26" width="53" height="44" as="geometry" />
        </mxCell>
        <mxCell id="S1rnQU5Jr-xG2g7S_xI7-2" value="EDD" style="text;html=1;strokeColor=none;fillColor=none;align=center;verticalAlign=middle;whiteSpace=wrap;rounded=0;glass=0;fontFamily=Hack;fontSource=https%3A%2F%2Ffonts.googleapis.com%2Fcss%3Ffamily%3DHack;fontSize=23;fontStyle=1" parent="-L4_JqOgApTh1CSubSjm-1" vertex="1">
          <mxGeometry x="1333" y="79" width="53" height="44" as="geometry" />
        </mxCell>
        <mxCell id="S1rnQU5Jr-xG2g7S_xI7-3" value="SAM" style="text;html=1;strokeColor=none;fillColor=none;align=center;verticalAlign=middle;whiteSpace=wrap;rounded=0;glass=0;fontFamily=Hack;fontSource=https%3A%2F%2Ffonts.googleapis.com%2Fcss%3Ffamily%3DHack;fontSize=23;fontStyle=1" parent="-L4_JqOgApTh1CSubSjm-1" vertex="1">
          <mxGeometry x="1335" y="126" width="53" height="44" as="geometry" />
        </mxCell>
        <mxCell id="S1rnQU5Jr-xG2g7S_xI7-4" value="ToMM" style="text;html=1;strokeColor=none;fillColor=none;align=center;verticalAlign=middle;whiteSpace=wrap;rounded=0;glass=0;fontFamily=Hack;fontSource=https%3A%2F%2Ffonts.googleapis.com%2Fcss%3Ffamily%3DHack;fontSize=23;fontStyle=1" parent="-L4_JqOgApTh1CSubSjm-1" vertex="1">
          <mxGeometry x="1340" y="169" width="53" height="44" as="geometry" />
        </mxCell>
        <mxCell id="S1rnQU5Jr-xG2g7S_xI7-6" value="" style="rounded=1;whiteSpace=wrap;html=1;align=left;strokeWidth=7;strokeColor=#82b366;fillColor=#d5e8d4;" parent="-L4_JqOgApTh1CSubSjm-1" vertex="1">
          <mxGeometry x="1289" y="82" width="32" height="32" as="geometry" />
        </mxCell>
        <mxCell id="S1rnQU5Jr-xG2g7S_xI7-8" value="" style="rounded=1;whiteSpace=wrap;html=1;align=left;strokeWidth=7;strokeColor=#6c8ebf;fillColor=#dae8fc;" parent="-L4_JqOgApTh1CSubSjm-1" vertex="1">
          <mxGeometry x="1289" y="128" width="32" height="32" as="geometry" />
        </mxCell>
        <mxCell id="S1rnQU5Jr-xG2g7S_xI7-9" value="" style="rounded=1;whiteSpace=wrap;html=1;align=left;strokeColor=#d6b656;strokeWidth=7;fillColor=#fff2cc;" parent="-L4_JqOgApTh1CSubSjm-1" vertex="1">
          <mxGeometry x="1289" y="176" width="32" height="32" as="geometry" />
        </mxCell>
        <mxCell id="5mfzUi4dUZro8W62QZWC-0" value="" style="group;fontFamily=Hack;fontSource=https%3A%2F%2Ffonts.googleapis.com%2Fcss%3Ffamily%3DHack;fontSize=10;align=center;" parent="-L4_JqOgApTh1CSubSjm-1" vertex="1" connectable="0">
          <mxGeometry x="745" y="278" width="242" height="472" as="geometry" />
        </mxCell>
        <mxCell id="5mfzUi4dUZro8W62QZWC-1" value="&lt;font style=&quot;font-size: 16px&quot;&gt;Shared Attention Codelet&lt;/font&gt;" style="rounded=1;whiteSpace=wrap;html=1;strokeWidth=3;fillColor=#ffcc99;strokeColor=#36393d;" parent="5mfzUi4dUZro8W62QZWC-0" vertex="1">
          <mxGeometry x="17.69772481040087" width="150.75839653304445" height="72.5" as="geometry" />
        </mxCell>
        <mxCell id="5mfzUi4dUZro8W62QZWC-2" value="&lt;font style=&quot;font-size: 8px;&quot;&gt;O&lt;/font&gt;" style="whiteSpace=wrap;html=1;strokeWidth=2;fillColor=#ffcccc;strokeColor=#36393d;fontSize=8;" parent="5mfzUi4dUZro8W62QZWC-0" vertex="1">
          <mxGeometry x="168.45612134344532" y="12.08333333333333" width="17.69772481040087" height="18.125" as="geometry" />
        </mxCell>
        <mxCell id="5mfzUi4dUZro8W62QZWC-3" value="&lt;font style=&quot;font-size: 8px;&quot;&gt;A&lt;/font&gt;" style="whiteSpace=wrap;html=1;strokeWidth=2;fillColor=#ffcccc;strokeColor=#36393d;fontSize=8;" parent="5mfzUi4dUZro8W62QZWC-0" vertex="1">
          <mxGeometry x="168.45612134344532" y="42.29166666666665" width="17.69772481040087" height="18.125" as="geometry" />
        </mxCell>
        <mxCell id="5mfzUi4dUZro8W62QZWC-4" value="&lt;font style=&quot;font-size: 8px; line-height: 120%;&quot;&gt;LI&lt;/font&gt;" style="whiteSpace=wrap;html=1;strokeWidth=2;fillColor=#ffcccc;strokeColor=#36393d;verticalAlign=middle;spacing=0;fontSize=8;" parent="5mfzUi4dUZro8W62QZWC-0" vertex="1">
          <mxGeometry y="12.08333333333333" width="17.69772481040087" height="18.125" as="geometry" />
        </mxCell>
        <mxCell id="5mfzUi4dUZro8W62QZWC-5" value="&lt;font style=&quot;font-size: 8px;&quot;&gt;GI&lt;/font&gt;" style="whiteSpace=wrap;html=1;strokeWidth=2;fillColor=#ffcccc;strokeColor=#36393d;fontSize=8;" parent="5mfzUi4dUZro8W62QZWC-0" vertex="1">
          <mxGeometry y="42.29166666666665" width="17.69772481040087" height="18.125" as="geometry" />
        </mxCell>
        <mxCell id="-L4_JqOgApTh1CSubSjm-27" value="&lt;font style=&quot;font-size: 18px&quot;&gt;SAM Memory&lt;/font&gt;" style="rounded=1;whiteSpace=wrap;html=1;strokeWidth=2;dashed=1;strokeColor=#3465A4;verticalAlign=top;align=center;spacingLeft=62;fontFamily=Hack;fontSource=https%3A%2F%2Ffonts.googleapis.com%2Fcss%3Ffamily%3DHack;fontSize=10;fillColor=#9AC7BF;" parent="-L4_JqOgApTh1CSubSjm-1" vertex="1">
          <mxGeometry x="589" y="601" width="238" height="171" as="geometry" />
        </mxCell>
        <mxCell id="-L4_JqOgApTh1CSubSjm-28" value="&lt;font style=&quot;font-size: 18px;&quot;&gt;Shared Attention MOs&lt;/font&gt;" style="ellipse;shape=doubleEllipse;whiteSpace=wrap;html=1;strokeColor=#36393d;strokeWidth=2;fillColor=#ffff88;fontSize=18;align=right;verticalAlign=middle;labelPosition=left;verticalLabelPosition=middle;fontFamily=Hack;fontSource=https%3A%2F%2Ffonts.googleapis.com%2Fcss%3Ffamily%3DHack;" parent="-L4_JqOgApTh1CSubSjm-1" vertex="1">
          <mxGeometry x="704" y="667" width="70" height="75" as="geometry" />
        </mxCell>
      </root>
    </mxGraphModel>
  </diagram>
  <diagram name="ToM Codelet View" id="c10HVDz1hUIJ9g-CTKg6">
    <mxGraphModel dx="1026" dy="600" grid="0" gridSize="10" guides="0" tooltips="1" connect="1" arrows="0" fold="1" page="1" pageScale="1" pageWidth="827" pageHeight="583" math="0" shadow="0">
      <root>
        <mxCell id="SQ4z7Ih9kKKHjofvBZOF-0" />
        <mxCell id="SQ4z7Ih9kKKHjofvBZOF-1" parent="SQ4z7Ih9kKKHjofvBZOF-0" />
        <mxCell id="lr01SzOd6CEfWivz9Kfy-0" value="&lt;font style=&quot;font-size: 14px&quot;&gt;ToM Memory&lt;/font&gt;" style="rounded=1;whiteSpace=wrap;html=1;strokeWidth=2;dashed=1;strokeColor=#3465A4;verticalAlign=top;align=center;spacingLeft=62;fontFamily=Hack;fontSource=https%3A%2F%2Ffonts.googleapis.com%2Fcss%3Ffamily%3DHack;fontSize=10;fillColor=#9AC7BF;" parent="SQ4z7Ih9kKKHjofvBZOF-1" vertex="1">
          <mxGeometry x="654" y="82" width="158" height="140" as="geometry" />
        </mxCell>
        <mxCell id="wl4DdFu_U_JFiCKYojGF-0" value="Semantic Memory" style="rounded=1;whiteSpace=wrap;html=1;strokeWidth=2;dashed=1;strokeColor=#3465A4;verticalAlign=top;align=left;spacingLeft=62;fontFamily=Hack;fontSource=https%3A%2F%2Ffonts.googleapis.com%2Fcss%3Ffamily%3DHack;fillColor=#9AC7BF;fontSize=16;" parent="SQ4z7Ih9kKKHjofvBZOF-1" vertex="1">
          <mxGeometry x="408" y="10" width="219" height="110" as="geometry" />
        </mxCell>
        <mxCell id="SQ4z7Ih9kKKHjofvBZOF-12" value="&lt;font style=&quot;font-size: 14px&quot;&gt;ID Memory&lt;/font&gt;" style="rounded=1;whiteSpace=wrap;html=1;strokeWidth=2;dashed=1;strokeColor=#3465A4;verticalAlign=top;align=center;spacingLeft=62;fontFamily=Hack;fontSource=https%3A%2F%2Ffonts.googleapis.com%2Fcss%3Ffamily%3DHack;fontSize=16;fillColor=#9AC7BF;" parent="SQ4z7Ih9kKKHjofvBZOF-1" vertex="1">
          <mxGeometry x="3" y="8" width="191" height="309" as="geometry" />
        </mxCell>
        <mxCell id="SQ4z7Ih9kKKHjofvBZOF-13" value="&lt;font style=&quot;font-size: 14px&quot;&gt;EDD Memory&lt;/font&gt;" style="rounded=1;whiteSpace=wrap;html=1;strokeWidth=2;dashed=1;strokeColor=#3465A4;verticalAlign=top;align=center;spacingLeft=62;fontFamily=Hack;fontSource=https%3A%2F%2Ffonts.googleapis.com%2Fcss%3Ffamily%3DHack;fontSize=10;fillColor=#9AC7BF;" parent="SQ4z7Ih9kKKHjofvBZOF-1" vertex="1">
          <mxGeometry x="199" y="195" width="203" height="125" as="geometry" />
        </mxCell>
        <mxCell id="SQ4z7Ih9kKKHjofvBZOF-26" value="" style="group;fontFamily=Hack;fontSource=https%3A%2F%2Ffonts.googleapis.com%2Fcss%3Ffamily%3DHack;fontSize=17;align=left;direction=west;rotation=180;" parent="SQ4z7Ih9kKKHjofvBZOF-1" vertex="1" connectable="0">
          <mxGeometry x="443" y="128" width="190" height="60" as="geometry" />
        </mxCell>
        <mxCell id="SQ4z7Ih9kKKHjofvBZOF-27" value="&lt;font style=&quot;font-size: 16px&quot;&gt;Theory of Mind Codelet&lt;/font&gt;" style="rounded=1;whiteSpace=wrap;html=1;strokeWidth=3;fillColor=#ffcc99;strokeColor=#36393d;" parent="SQ4z7Ih9kKKHjofvBZOF-26" vertex="1">
          <mxGeometry x="18.063380281690144" width="153.87323943661974" height="60" as="geometry" />
        </mxCell>
        <mxCell id="SQ4z7Ih9kKKHjofvBZOF-28" value="&lt;font style=&quot;font-size: 8px;&quot;&gt;O&lt;/font&gt;" style="whiteSpace=wrap;html=1;strokeWidth=2;fillColor=#ffcccc;strokeColor=#36393d;fontSize=8;" parent="SQ4z7Ih9kKKHjofvBZOF-26" vertex="1">
          <mxGeometry x="171.93661971830986" y="9.999999999999998" width="18.063380281690144" height="15" as="geometry" />
        </mxCell>
        <mxCell id="SQ4z7Ih9kKKHjofvBZOF-29" value="&lt;font style=&quot;font-size: 8px;&quot;&gt;A&lt;/font&gt;" style="whiteSpace=wrap;html=1;strokeWidth=2;fillColor=#ffcccc;strokeColor=#36393d;fontSize=8;" parent="SQ4z7Ih9kKKHjofvBZOF-26" vertex="1">
          <mxGeometry x="171.93661971830986" y="34.99999999999999" width="18.063380281690144" height="15" as="geometry" />
        </mxCell>
        <mxCell id="SQ4z7Ih9kKKHjofvBZOF-30" value="&lt;font style=&quot;font-size: 8px; line-height: 120%;&quot;&gt;LI&lt;/font&gt;" style="whiteSpace=wrap;html=1;strokeWidth=2;fillColor=#ffcccc;strokeColor=#36393d;verticalAlign=middle;spacing=0;fontSize=8;" parent="SQ4z7Ih9kKKHjofvBZOF-26" vertex="1">
          <mxGeometry y="9.999999999999998" width="18.063380281690144" height="15" as="geometry" />
        </mxCell>
        <mxCell id="SQ4z7Ih9kKKHjofvBZOF-31" value="&lt;font style=&quot;font-size: 8px;&quot;&gt;GI&lt;/font&gt;" style="whiteSpace=wrap;html=1;strokeWidth=2;fillColor=#ffcccc;strokeColor=#36393d;fontSize=8;" parent="SQ4z7Ih9kKKHjofvBZOF-26" vertex="1">
          <mxGeometry y="34.99999999999999" width="18.063380281690144" height="15" as="geometry" />
        </mxCell>
        <mxCell id="SQ4z7Ih9kKKHjofvBZOF-33" value="&lt;font style=&quot;font-size: 16px;&quot;&gt;Attention MOs&lt;/font&gt;" style="ellipse;shape=doubleEllipse;whiteSpace=wrap;html=1;strokeColor=#36393d;strokeWidth=2;fillColor=#ffff88;fontSize=16;align=right;verticalAlign=middle;labelPosition=left;verticalLabelPosition=middle;fontFamily=Hack;fontSource=https%3A%2F%2Ffonts.googleapis.com%2Fcss%3Ffamily%3DHack;" parent="SQ4z7Ih9kKKHjofvBZOF-1" vertex="1">
          <mxGeometry x="300" y="227" width="70" height="75" as="geometry" />
        </mxCell>
        <mxCell id="SQ4z7Ih9kKKHjofvBZOF-34" value="&lt;font style=&quot;font-size: 14px&quot;&gt;SAM Memory&lt;/font&gt;" style="rounded=1;whiteSpace=wrap;html=1;strokeWidth=2;dashed=1;strokeColor=#3465A4;verticalAlign=top;align=center;spacingLeft=62;fontFamily=Hack;fontSource=https%3A%2F%2Ffonts.googleapis.com%2Fcss%3Ffamily%3DHack;fontSize=10;fillColor=#9AC7BF;" parent="SQ4z7Ih9kKKHjofvBZOF-1" vertex="1">
          <mxGeometry x="208" y="9" width="186" height="109" as="geometry" />
        </mxCell>
        <mxCell id="SQ4z7Ih9kKKHjofvBZOF-35" value="&lt;font style=&quot;font-size: 16px;&quot;&gt;Shared Attention MOs&lt;/font&gt;" style="ellipse;shape=doubleEllipse;whiteSpace=wrap;html=1;strokeColor=#36393d;strokeWidth=2;fillColor=#ffff88;fontSize=16;align=left;verticalAlign=middle;labelPosition=right;verticalLabelPosition=middle;fontFamily=Hack;fontSource=https%3A%2F%2Ffonts.googleapis.com%2Fcss%3Ffamily%3DHack;" parent="SQ4z7Ih9kKKHjofvBZOF-1" vertex="1">
          <mxGeometry x="219" y="34" width="70" height="75" as="geometry" />
        </mxCell>
        <mxCell id="SQ4z7Ih9kKKHjofvBZOF-54" value="&lt;font style=&quot;font-size: 16px;&quot;&gt;Intentions MOs&lt;/font&gt;" style="ellipse;shape=doubleEllipse;whiteSpace=wrap;html=1;strokeColor=#36393d;strokeWidth=2;fillColor=#ffff88;fontSize=16;align=right;verticalAlign=middle;labelPosition=left;verticalLabelPosition=middle;fontFamily=Hack;fontSource=https%3A%2F%2Ffonts.googleapis.com%2Fcss%3Ffamily%3DHack;" parent="SQ4z7Ih9kKKHjofvBZOF-1" vertex="1">
          <mxGeometry x="111" y="208" width="70" height="75" as="geometry" />
        </mxCell>
        <mxCell id="SQ4z7Ih9kKKHjofvBZOF-56" value="&lt;font style=&quot;font-size: 16px;&quot; data-font-src=&quot;https://fonts.googleapis.com/css?family=Hack&quot;&gt;Beliefs&lt;/font&gt;" style="ellipse;shape=doubleEllipse;whiteSpace=wrap;html=1;strokeColor=#36393d;strokeWidth=2;fillColor=#ffff88;fontSize=16;align=center;verticalAlign=top;labelPosition=center;verticalLabelPosition=bottom;fontFamily=Hack;fontSource=https%3A%2F%2Ffonts.googleapis.com%2Fcss%3Ffamily%3DHack;" parent="SQ4z7Ih9kKKHjofvBZOF-1" vertex="1">
          <mxGeometry x="701" y="107" width="70" height="77" as="geometry" />
        </mxCell>
        <mxCell id="SQ4z7Ih9kKKHjofvBZOF-59" value="&lt;font style=&quot;font-size: 16px;&quot;&gt;Affordances MOs&lt;/font&gt;" style="ellipse;shape=doubleEllipse;whiteSpace=wrap;html=1;strokeColor=#36393d;strokeWidth=2;fillColor=#ffff88;fontSize=16;align=left;verticalAlign=middle;labelPosition=right;verticalLabelPosition=middle;fontFamily=Hack;fontSource=https%3A%2F%2Ffonts.googleapis.com%2Fcss%3Ffamily%3DHack;" parent="SQ4z7Ih9kKKHjofvBZOF-1" vertex="1">
          <mxGeometry x="420" y="34" width="70" height="75" as="geometry" />
        </mxCell>
        <mxCell id="SQ4z7Ih9kKKHjofvBZOF-81" value="&lt;font style=&quot;font-size: 16px;&quot;&gt;Agents MOs&lt;/font&gt;" style="ellipse;shape=doubleEllipse;whiteSpace=wrap;html=1;strokeColor=#36393d;strokeWidth=2;fillColor=#ffff88;fontSize=16;align=right;verticalAlign=middle;labelPosition=left;verticalLabelPosition=middle;fontFamily=Hack;fontSource=https%3A%2F%2Ffonts.googleapis.com%2Fcss%3Ffamily%3DHack;" parent="SQ4z7Ih9kKKHjofvBZOF-1" vertex="1">
          <mxGeometry x="108" y="42" width="70" height="75" as="geometry" />
        </mxCell>
        <mxCell id="SQ4z7Ih9kKKHjofvBZOF-82" value="&lt;font style=&quot;font-size: 16px;&quot;&gt;Objects MOs&lt;/font&gt;" style="ellipse;shape=doubleEllipse;whiteSpace=wrap;html=1;strokeColor=#36393d;strokeWidth=2;fillColor=#ffff88;fontSize=16;align=right;verticalAlign=middle;labelPosition=left;verticalLabelPosition=middle;fontFamily=Hack;fontSource=https%3A%2F%2Ffonts.googleapis.com%2Fcss%3Ffamily%3DHack;" parent="SQ4z7Ih9kKKHjofvBZOF-1" vertex="1">
          <mxGeometry x="110" y="126" width="70" height="75" as="geometry" />
        </mxCell>
        <mxCell id="SQ4z7Ih9kKKHjofvBZOF-95" value="" style="edgeStyle=elbowEdgeStyle;elbow=vertical;endArrow=classic;html=1;strokeWidth=4;exitX=0;exitY=0.5;exitDx=0;exitDy=0;entryX=0;entryY=0.5;entryDx=0;entryDy=0;strokeColor=#7EA6E0;" parent="SQ4z7Ih9kKKHjofvBZOF-1" source="SQ4z7Ih9kKKHjofvBZOF-59" target="SQ4z7Ih9kKKHjofvBZOF-30" edge="1">
          <mxGeometry width="50" height="50" relative="1" as="geometry">
            <mxPoint x="1426" y="577" as="sourcePoint" />
            <mxPoint x="1270" y="1313" as="targetPoint" />
            <Array as="points">
              <mxPoint x="420" y="146" />
              <mxPoint x="876" y="650" />
              <mxPoint x="1209" y="1442" />
              <mxPoint x="1231" y="1632" />
              <mxPoint x="1621" y="1097" />
              <mxPoint x="1754" y="681" />
              <mxPoint x="1371" y="818" />
            </Array>
          </mxGeometry>
        </mxCell>
        <mxCell id="SQ4z7Ih9kKKHjofvBZOF-97" value="" style="edgeStyle=elbowEdgeStyle;elbow=vertical;endArrow=classic;html=1;strokeColor=#FF66B3;strokeWidth=4;entryX=0;entryY=0.25;entryDx=0;entryDy=0;exitX=0.5;exitY=1;exitDx=0;exitDy=0;" parent="SQ4z7Ih9kKKHjofvBZOF-1" source="SQ4z7Ih9kKKHjofvBZOF-35" target="SQ4z7Ih9kKKHjofvBZOF-30" edge="1">
          <mxGeometry width="50" height="50" relative="1" as="geometry">
            <mxPoint x="1425" y="914" as="sourcePoint" />
            <mxPoint x="1263" y="1682" as="targetPoint" />
            <Array as="points">
              <mxPoint x="372" y="142" />
              <mxPoint x="388" y="185" />
              <mxPoint x="384" y="275" />
              <mxPoint x="433" y="253" />
              <mxPoint x="1193" y="1699" />
              <mxPoint x="1171" y="1682" />
              <mxPoint x="1231" y="1654" />
              <mxPoint x="1190" y="1703" />
              <mxPoint x="1176" y="1613" />
              <mxPoint x="1157" y="1261" />
              <mxPoint x="1381" y="828" />
            </Array>
          </mxGeometry>
        </mxCell>
        <mxCell id="SQ4z7Ih9kKKHjofvBZOF-98" value="" style="edgeStyle=elbowEdgeStyle;elbow=vertical;endArrow=classic;html=1;strokeColor=#FF66B3;strokeWidth=4;entryX=0;entryY=0.5;entryDx=0;entryDy=0;" parent="SQ4z7Ih9kKKHjofvBZOF-1" source="SQ4z7Ih9kKKHjofvBZOF-33" target="SQ4z7Ih9kKKHjofvBZOF-30" edge="1">
          <mxGeometry width="50" height="50" relative="1" as="geometry">
            <mxPoint x="1027.9999999999998" y="1238" as="sourcePoint" />
            <mxPoint x="487" y="382" as="targetPoint" />
            <Array as="points">
              <mxPoint x="397" y="146" />
              <mxPoint x="389" y="189" />
              <mxPoint x="469" y="279" />
              <mxPoint x="500" y="352" />
              <mxPoint x="401" y="406" />
              <mxPoint x="446" y="491" />
              <mxPoint x="422" y="629" />
              <mxPoint x="245" y="353" />
              <mxPoint x="465" y="429" />
              <mxPoint x="682" y="1097" />
              <mxPoint x="1181" y="1702" />
              <mxPoint x="1209" y="1594" />
              <mxPoint x="1123" y="1708" />
              <mxPoint x="1180" y="1626" />
              <mxPoint x="1137" y="1703" />
              <mxPoint x="1186" y="1275" />
              <mxPoint x="935" y="1299" />
              <mxPoint x="1283" y="1259" />
              <mxPoint x="958" y="1309" />
              <mxPoint x="1156" y="1255" />
              <mxPoint x="1157" y="1250" />
              <mxPoint x="1191" y="1242" />
              <mxPoint x="1167" y="1271" />
              <mxPoint x="1391" y="838" />
            </Array>
          </mxGeometry>
        </mxCell>
        <mxCell id="wl4DdFu_U_JFiCKYojGF-1" value="" style="edgeStyle=elbowEdgeStyle;elbow=horizontal;endArrow=classic;html=1;strokeWidth=4;entryX=0;entryY=0.5;entryDx=0;entryDy=0;exitX=1;exitY=0.5;exitDx=0;exitDy=0;" parent="SQ4z7Ih9kKKHjofvBZOF-1" source="SQ4z7Ih9kKKHjofvBZOF-54" target="SQ4z7Ih9kKKHjofvBZOF-30" edge="1">
          <mxGeometry width="50" height="50" relative="1" as="geometry">
            <mxPoint x="165" y="-2" as="sourcePoint" />
            <mxPoint x="215" y="-52" as="targetPoint" />
            <Array as="points">
              <mxPoint x="187" y="268" />
              <mxPoint x="206" y="322" />
            </Array>
          </mxGeometry>
        </mxCell>
        <mxCell id="wl4DdFu_U_JFiCKYojGF-3" value="" style="edgeStyle=elbowEdgeStyle;elbow=horizontal;endArrow=classic;html=1;strokeWidth=4;entryX=0;entryY=0.5;entryDx=0;entryDy=0;exitX=1;exitY=0.5;exitDx=0;exitDy=0;" parent="SQ4z7Ih9kKKHjofvBZOF-1" source="SQ4z7Ih9kKKHjofvBZOF-82" target="SQ4z7Ih9kKKHjofvBZOF-30" edge="1">
          <mxGeometry width="50" height="50" relative="1" as="geometry">
            <mxPoint x="363" y="112.5" as="sourcePoint" />
            <mxPoint x="529.0000000000002" y="288.5" as="targetPoint" />
            <Array as="points">
              <mxPoint x="187" y="185" />
              <mxPoint x="186" y="212" />
              <mxPoint x="206" y="203" />
            </Array>
          </mxGeometry>
        </mxCell>
        <mxCell id="wl4DdFu_U_JFiCKYojGF-4" value="" style="edgeStyle=elbowEdgeStyle;elbow=horizontal;endArrow=classic;html=1;strokeWidth=4;entryX=0;entryY=0.5;entryDx=0;entryDy=0;exitX=1;exitY=0.5;exitDx=0;exitDy=0;" parent="SQ4z7Ih9kKKHjofvBZOF-1" source="SQ4z7Ih9kKKHjofvBZOF-81" target="SQ4z7Ih9kKKHjofvBZOF-30" edge="1">
          <mxGeometry width="50" height="50" relative="1" as="geometry">
            <mxPoint x="174" y="189" as="sourcePoint" />
            <mxPoint x="340.0000000000002" y="365" as="targetPoint" />
            <Array as="points">
              <mxPoint x="187" y="153" />
              <mxPoint x="148" y="189" />
              <mxPoint x="208" y="203" />
            </Array>
          </mxGeometry>
        </mxCell>
        <mxCell id="72Mi1c0NWAwQQzoYYUuc-0" value="&lt;font style=&quot;font-size: 14px&quot;&gt;Positioning Memory&lt;/font&gt;" style="rounded=1;whiteSpace=wrap;html=1;strokeWidth=2;dashed=1;strokeColor=#3465A4;verticalAlign=top;align=center;spacingLeft=62;fontFamily=Hack;fontSource=https%3A%2F%2Ffonts.googleapis.com%2Fcss%3Ffamily%3DHack;fontSize=10;fillColor=#9AC7BF;" parent="SQ4z7Ih9kKKHjofvBZOF-1" vertex="1">
          <mxGeometry x="419" y="196" width="200" height="122" as="geometry" />
        </mxCell>
        <mxCell id="72Mi1c0NWAwQQzoYYUuc-2" value="&lt;font style=&quot;font-size: 16px&quot;&gt;Positioning MOs&lt;/font&gt;" style="ellipse;shape=doubleEllipse;whiteSpace=wrap;html=1;strokeColor=#36393d;strokeWidth=2;fillColor=#ffff88;fontSize=16;align=left;verticalAlign=middle;labelPosition=right;verticalLabelPosition=middle;fontFamily=Hack;fontSource=https%3A%2F%2Ffonts.googleapis.com%2Fcss%3Ffamily%3DHack;" parent="SQ4z7Ih9kKKHjofvBZOF-1" vertex="1">
          <mxGeometry x="430" y="223" width="70" height="75" as="geometry" />
        </mxCell>
        <mxCell id="72Mi1c0NWAwQQzoYYUuc-3" value="" style="edgeStyle=elbowEdgeStyle;elbow=vertical;endArrow=classic;html=1;strokeWidth=4;entryX=0;entryY=0.5;entryDx=0;entryDy=0;strokeColor=#FFB570;exitX=0;exitY=0.5;exitDx=0;exitDy=0;" parent="SQ4z7Ih9kKKHjofvBZOF-1" source="72Mi1c0NWAwQQzoYYUuc-2" target="SQ4z7Ih9kKKHjofvBZOF-30" edge="1">
          <mxGeometry width="50" height="50" relative="1" as="geometry">
            <mxPoint x="346" y="460" as="sourcePoint" />
            <mxPoint x="529" y="288.5" as="targetPoint" />
            <Array as="points">
              <mxPoint x="413" y="182" />
              <mxPoint x="428" y="215" />
              <mxPoint x="443" y="185" />
              <mxPoint x="455" y="189" />
              <mxPoint x="497" y="279" />
              <mxPoint x="510" y="362" />
              <mxPoint x="411" y="416" />
              <mxPoint x="456" y="501" />
              <mxPoint x="432" y="639" />
              <mxPoint x="255" y="363" />
              <mxPoint x="475" y="439" />
              <mxPoint x="692" y="1107" />
              <mxPoint x="1191" y="1712" />
              <mxPoint x="1219" y="1604" />
              <mxPoint x="1133" y="1718" />
              <mxPoint x="1190" y="1636" />
              <mxPoint x="1147" y="1713" />
              <mxPoint x="1196" y="1285" />
              <mxPoint x="945" y="1309" />
              <mxPoint x="1293" y="1269" />
              <mxPoint x="968" y="1319" />
              <mxPoint x="1166" y="1265" />
              <mxPoint x="1167" y="1260" />
              <mxPoint x="1201" y="1252" />
              <mxPoint x="1177" y="1281" />
              <mxPoint x="1401" y="848" />
            </Array>
          </mxGeometry>
        </mxCell>
        <mxCell id="lr01SzOd6CEfWivz9Kfy-1" value="" style="edgeStyle=elbowEdgeStyle;elbow=horizontal;endArrow=classic;html=1;strokeWidth=4;fillColor=#ffe6cc;strokeColor=#d79b00;exitX=1;exitY=0.5;exitDx=0;exitDy=0;entryX=0;entryY=0.5;entryDx=0;entryDy=0;" parent="SQ4z7Ih9kKKHjofvBZOF-1" source="SQ4z7Ih9kKKHjofvBZOF-28" target="SQ4z7Ih9kKKHjofvBZOF-56" edge="1">
          <mxGeometry width="50" height="50" relative="1" as="geometry">
            <mxPoint x="699" y="344" as="sourcePoint" />
            <mxPoint x="749" y="294" as="targetPoint" />
          </mxGeometry>
        </mxCell>
      </root>
    </mxGraphModel>
  </diagram>
</mxfile>
